<svg fill="none" height="52" viewBox="0 0 52 52" width="52" xmlns="http://www.w3.org/2000/svg">
    <path d="M28.4375 50.375H26.8125V52H28.4375V50.375Z" fill="#9B51E0" />
    <path d="M28.4375 47.125H26.8125V48.75H28.4375V47.125Z" fill="#9B51E0" />
    <path
        d="M48.75 6.5V3.25H39V4.875H47.125V40.625H28.4375V16.7375C28.925 16.1688 29.25 15.4375 29.25 14.625C29.25 13.8125 28.925 13.0812 28.4375 12.5125V11.375H31.3625L32.9875 13H35.75C36.6437 13 37.375 12.2688 37.375 11.375V1.625C37.375 0.73125 36.6437 0 35.75 0H32.9875L31.3625 1.625H28.4375V0H23.5625V1.625H20.6375L19.0125 0H16.25C15.3562 0 14.625 0.73125 14.625 1.625V11.375C14.625 12.2688 15.3562 13 16.25 13H19.0125L20.6375 11.375H23.5625V12.5125C23.075 13.0812 22.75 13.8125 22.75 14.625C22.75 15.4375 23.075 16.1688 23.5625 16.7375V52H25.1875V17.7937C25.4312 17.875 25.7563 17.875 26 17.875C26.2437 17.875 26.5688 17.7937 26.8125 17.7937V42.25H48.75V8.125H50.375V43.875H26.8125V45.5H52V6.5H48.75ZM33.6375 1.625H35.75V11.375H33.6375L32.5 10.2375V2.7625L33.6375 1.625ZM30.875 3.25V9.75H28.4375V3.25H30.875ZM26.8125 1.625V11.4563C26.5688 11.375 26.2437 11.375 26 11.375C25.7563 11.375 25.4312 11.4563 25.1875 11.4563V1.625H26.8125ZM18.3625 11.375H16.25V1.625H18.3625L19.5 2.7625V10.2375L18.3625 11.375ZM21.125 9.75V3.25H23.5625V9.75H21.125ZM24.375 14.625C24.375 13.7312 25.1062 13 26 13C26.8938 13 27.625 13.7312 27.625 14.625C27.625 15.5188 26.8938 16.25 26 16.25C25.1062 16.25 24.375 15.5188 24.375 14.625Z"
        fill="#9B51E0" />
    <path
        d="M4.875 4.875H13V3.25H3.25V6.5H0V45.5H21.9375V43.875H1.625V8.125H3.25V42.25H21.9375V40.625H4.875V4.875Z"
        fill="#9B51E0" />
    <path d="M20.3125 16.25H8.125V17.875H20.3125V16.25Z" fill="#9B51E0" />
    <path d="M20.3125 19.5H8.125V21.125H20.3125V19.5Z" fill="#9B51E0" />
    <path d="M20.3125 22.75H8.125V24.375H20.3125V22.75Z" fill="#9B51E0" />
    <path d="M20.3125 26H8.125V27.625H20.3125V26Z" fill="#9B51E0" />
    <path d="M20.3125 29.25H8.125V30.875H20.3125V29.25Z" fill="#9B51E0" />
    <path d="M20.3125 32.5H8.125V34.125H20.3125V32.5Z" fill="#9B51E0" />
    <path d="M20.3125 35.75H8.125V37.375H20.3125V35.75Z" fill="#9B51E0" />
    <path d="M43.875 16.25H31.6875V17.875H43.875V16.25Z" fill="#9B51E0" />
    <path d="M43.875 19.5H31.6875V21.125H43.875V19.5Z" fill="#9B51E0" />
    <path d="M43.875 22.75H31.6875V24.375H43.875V22.75Z" fill="#9B51E0" />
    <path d="M43.875 26H31.6875V27.625H43.875V26Z" fill="#9B51E0" />
    <path d="M43.875 29.25H31.6875V30.875H43.875V29.25Z" fill="#9B51E0" />
    <path d="M43.875 32.5H31.6875V34.125H43.875V32.5Z" fill="#9B51E0" />
    <path d="M43.875 35.75H31.6875V37.375H43.875V35.75Z" fill="#9B51E0" />
</svg>
