<svg fill="none" height="47" viewBox="0 0 52 47" width="52" xmlns="http://www.w3.org/2000/svg">
    <path
        d="M29.929 34.3984C32.1093 31.6311 31.9248 27.5975 29.3755 25.0482C26.625 22.2977 22.147 22.2977 19.3881 25.0482C16.6376 27.7988 16.6376 32.2768 19.3881 35.0357C20.7634 36.4109 22.5747 37.0986 24.3776 37.0986C25.9206 37.0986 27.4636 36.5954 28.7382 35.5891L33.2413 40.0923C33.4091 40.26 33.6187 40.3355 33.8367 40.3355C34.0548 40.3355 34.2644 40.2516 34.4321 40.0923C34.7592 39.7652 34.7592 39.2369 34.4321 38.9099L29.929 34.3984ZM20.5705 33.8449C18.474 31.7485 18.474 28.3271 20.5705 26.2306C21.6187 25.1824 23.0023 24.6541 24.3776 24.6541C25.7529 24.6541 27.1365 25.1824 28.1847 26.2306C30.2812 28.3271 30.2812 31.7485 28.1847 33.8449C26.0883 35.9413 22.6753 35.9413 20.5705 33.8449Z"
        fill="#2D9CDB" />
    <path
        d="M49.7359 17.4927H46.8931C46.8931 17.4004 46.8931 3.11111 46.8931 3.21174C46.8931 1.44235 45.4507 0 43.6813 0H8.31027C6.54088 0 5.09853 1.44235 5.09853 3.21174V6.38155V8.85535V11.6226H2.25577C1.01468 11.6226 0 12.6289 0 13.8784V40.1929C0 43.6981 2.85115 46.5493 6.35639 46.5493H45.6436C49.1488 46.5493 52 43.6981 52 40.1929V19.7484C51.9916 18.499 50.9769 17.4927 49.7359 17.4927ZM6.77568 7.22013H45.2159V8.01677H6.77568V7.22013ZM8.31027 1.67715H43.6813C44.5283 1.67715 45.2159 2.36478 45.2159 3.21174V5.54298H6.77568V3.21174C6.77568 2.36478 7.46331 1.67715 8.31027 1.67715ZM6.77568 9.69392H45.2159V17.4927H20.2432L15.3962 11.9078C15.2369 11.7233 15.0105 11.6226 14.7673 11.6226H6.77568V9.69392ZM50.3145 40.1845C50.3145 42.7589 48.218 44.8637 45.6352 44.8637H6.35639C3.77359 44.8637 1.67715 42.7673 1.67715 40.1845V13.8784C1.67715 13.5597 1.93711 13.2998 2.25577 13.2998H5.93711H14.3816L19.2285 18.8847C19.3878 19.0692 19.6143 19.1698 19.8574 19.1698H46.0461H49.7275C50.0461 19.1698 50.3061 19.4298 50.3061 19.7484V40.1845H50.3145Z"
        fill="#2D9CDB" />
</svg>
