<svg fill="none" height="43" viewBox="0 0 36 43" width="36" xmlns="http://www.w3.org/2000/svg">
    <path
        d="M25.8234 34.4577H24.9266V9.54213H25.8234C28.175 9.54213 30.1 7.62807 30.1 5.26557C30.1 2.91401 28.1859 0.989014 25.8234 0.989014H4.27656C1.91406 0.999951 0 2.91401 0 5.27651V38.7343C0 41.0859 1.91406 42.9999 4.27656 42.9999H25.8234C28.175 42.9999 30.1 41.0859 30.1 38.7234C30.0891 36.3718 28.175 34.4577 25.8234 34.4577ZM8.1375 3.46089H25.8125C26.8078 3.46089 27.6281 4.27026 27.6281 5.27651C27.6281 6.27182 26.8188 7.09213 25.8125 7.09213H8.1375C8.4 6.54526 8.54219 5.93276 8.54219 5.27651C8.54219 4.62026 8.4 4.00776 8.1375 3.46089ZM4.27656 40.539C3.28125 40.539 2.46094 39.7296 2.46094 38.7234V5.27651C2.46094 4.2812 3.27031 3.46089 4.27656 3.46089C5.27187 3.46089 6.09219 4.27026 6.09219 5.27651C6.09219 6.27182 5.28281 7.09213 4.27656 7.09213V9.55307H22.4656V34.4687H4.27656V36.9296C5.27187 36.9296 6.09219 37.739 6.09219 38.7452C6.09219 39.7515 5.27187 40.539 4.27656 40.539ZM25.8234 40.539H8.1375C8.4 39.9921 8.54219 39.3796 8.54219 38.7234C8.54219 38.0781 8.4 37.4655 8.1375 36.9077H25.8125C26.8078 36.9077 27.6281 37.7171 27.6281 38.7234C27.6281 39.7296 26.8188 40.539 25.8234 40.539Z"
        fill="#C04848" />
    <path d="M18.6922 12.9656H12.0312V15.4265H18.6922V12.9656Z" fill="#C04848" />
    <path d="M9.625 12.9656H7.16406V15.4265H9.625V12.9656Z" fill="#C04848" />
    <path d="M18.6922 17.8875H12.0312V20.3484H18.6922V17.8875Z" fill="#C04848" />
    <path d="M9.625 17.8875H7.16406V20.3484H9.625V17.8875Z" fill="#C04848" />
    <path d="M18.6922 22.8093H12.0312V25.2703H18.6922V22.8093Z" fill="#C04848" />
    <path d="M9.625 22.8093H7.16406V25.2703H9.625V22.8093Z" fill="#C04848" />
    <path d="M18.6922 27.7312H12.0312V30.1921H18.6922V27.7312Z" fill="#C04848" />
    <path d="M9.625 27.7312H7.16406V30.1921H9.625V27.7312Z" fill="#C04848" />
    <path
        d="M33.2989 15.5055V10H29V30.6593C29 31.9341 29.2171 33.1538 29.627 34.1868L31.1464 38L32.6658 34.1868C33.0758 33.1538 33.2929 31.9341 33.2929 30.6593V18.5275L34.6374 20.2418V24.8901H36V18.956L33.2989 15.5055ZM31.9423 12.4725V14.9231H30.3566V12.4725H31.9423ZM31.5745 32.7363L31.1525 33.8022L30.7304 32.7363C30.4892 32.1319 30.3626 31.4066 30.3626 30.6593V17.3956H31.9483V30.6484C31.9423 31.4066 31.8157 32.1209 31.5745 32.7363Z"
        fill="#C04848" />
</svg>
