<svg fill="none" height="54" viewBox="0 0 45 54" width="45" xmlns="http://www.w3.org/2000/svg">
    <path
        d="M43.8475 1H5.91979C3.20737 1 1 3.20672 1 5.91979V47.308V48.0802V48.8517C1 51.1391 2.86093 53 5.14825 53H43.8475C44.1666 53 44.4253 52.7413 44.4253 52.4222V43.7383V1.57784C44.4253 1.2587 44.1666 1 43.8475 1ZM2.15569 5.91979C2.15569 3.84436 3.84437 2.15569 5.91979 2.15569H43.2696V43.1598H5.1476C3.97176 43.1598 2.91098 43.6538 2.15504 44.4429V5.91979H2.15569ZM11.5377 44.3155H18.8384V48.5326L15.4578 46.7484C15.2888 46.6593 15.0873 46.6593 14.9183 46.7484L11.5377 48.5326V44.3155ZM43.2696 51.8443H5.1476C3.49727 51.8443 2.15504 50.5021 2.15504 48.8517V48.0802V47.308C2.15504 45.6577 3.49727 44.3155 5.1476 44.3155H10.382V49.4907C10.382 49.6935 10.4879 49.8813 10.6615 49.9853C10.835 50.0893 11.0495 50.0958 11.2296 50.0016L15.188 47.9125L19.1465 50.0016C19.231 50.0464 19.3239 50.0679 19.4162 50.0679C19.5196 50.0679 19.6229 50.0399 19.7146 49.9847C19.8875 49.88 19.9941 49.6922 19.9941 49.49V44.3155H43.2696V51.8443Z"
        fill="#0F0E40" fill-opacity="0.5" />
    <path
        d="M20.2441 44.5655V49.49C20.2441 49.7803 20.0912 50.0489 19.844 50.1986L19.8436 50.1988C19.7126 50.2778 19.5646 50.3179 19.4162 50.3179C19.2855 50.3179 19.1522 50.2875 19.0298 50.2227L20.2441 44.5655ZM20.2441 44.5655H43.0196V51.5943H5.1476C3.63534 51.5943 2.40504 50.364 2.40504 48.8517V48.0802V47.308C2.40504 45.7958 3.63534 44.5655 5.1476 44.5655H10.132V49.4907C10.132 49.7808 10.2836 50.0503 10.533 50.1998C10.7811 50.3485 11.0882 50.3577 11.3455 50.2231L11.3463 50.2227L15.188 48.1952L19.0293 50.2224L20.2441 44.5655ZM2.40504 6.16979H2.40569V5.91979C2.40569 3.98244 3.98244 2.40569 5.91979 2.40569H43.0196V42.9098H5.1476C4.10991 42.9098 3.15701 43.2726 2.40504 43.8757V6.16979ZM14.8016 46.5273L11.7877 48.118V44.5655H18.5884V48.118L15.5745 46.5273L15.5743 46.5272C15.3324 46.3997 15.0437 46.3997 14.8017 46.5272L14.8016 46.5273ZM43.8475 0.75H5.91979C3.06932 0.75 0.75 3.06863 0.75 5.91979V47.308V48.0802V48.8517C0.75 51.2771 2.72286 53.25 5.14825 53.25H43.8475C44.3047 53.25 44.6753 52.8794 44.6753 52.4222V43.7383V1.57784C44.6753 1.12063 44.3047 0.75 43.8475 0.75Z"
        stroke="#0F0E40" stroke-opacity="0.5" stroke-width="0.5" />
    <path
        d="M22.7124 33.783C22.5817 33.783 22.4517 33.7388 22.3445 33.6511C17.3181 29.5061 13.8075 23.5996 11.9089 16.0967C11.8341 15.8016 12.0018 15.4987 12.2917 15.4051C15.5456 14.3567 18.9489 12.7324 22.4069 10.577C22.5934 10.46 22.8313 10.46 23.0179 10.577C26.4765 12.7324 29.8798 14.3574 33.1324 15.4051C33.4223 15.4987 33.59 15.801 33.5152 16.0967C31.6173 23.5996 28.106 29.5048 23.0796 33.6511C22.9737 33.7395 22.843 33.783 22.7124 33.783ZM13.164 16.334C14.9801 23.1615 18.1904 28.5798 22.7124 32.4512C27.2344 28.5792 30.4447 23.1615 32.2601 16.334C29.172 15.2881 25.9643 13.747 22.7124 11.747C19.4611 13.7464 16.2534 15.2875 13.164 16.334Z"
        fill="#0F0E40" fill-opacity="0.5" />
    <path
        d="M22.1854 33.8439L22.1862 33.8446C22.3389 33.9695 22.525 34.033 22.7124 34.033C22.898 34.033 23.0856 33.9712 23.2387 33.8439C28.3134 29.6578 31.8491 23.7026 33.7576 16.158L33.7576 16.158C33.8647 15.7343 33.6243 15.3013 33.2092 15.1672L33.2091 15.1672C29.9794 14.1268 26.5948 12.5115 23.1504 10.365C22.8829 10.1974 22.5422 10.1973 22.2746 10.3648C18.8309 12.5114 15.4461 14.1261 12.215 15.1672L12.2149 15.1672C11.7997 15.3013 11.5594 15.735 11.6665 16.1581C13.5757 23.7025 17.1107 29.6591 22.1854 33.8439ZM22.7124 32.1209C18.3702 28.3408 15.2596 23.0944 13.4661 16.4948C16.4657 15.4578 19.5701 13.9615 22.7124 12.0403C25.8553 13.9621 28.9596 15.4584 31.958 16.4948C30.1651 23.0944 27.0546 28.3401 22.7124 32.1209Z"
        stroke="#0F0E40" stroke-opacity="0.5" stroke-width="0.5" />
</svg>
