<svg fill="none" height="52" viewBox="0 0 52 52" width="52" xmlns="http://www.w3.org/2000/svg">
    <path
        d="M29.25 32.0677H26.8125V7.85121C27.3925 7.72789 27.9379 7.47734 28.4093 7.11764C28.8807 6.75794 29.2664 6.29807 29.5385 5.77122C32.1628 6.54309 34.45 8.18434 36.5219 10.7762C37.0447 11.4285 37.7764 11.8805 38.5937 12.0559C38.7812 12.0914 38.9717 12.1091 39.1625 12.1087C39.7067 12.1089 40.2419 11.9702 40.7175 11.7058C41.1931 11.4413 41.5933 11.0598 41.8803 10.5975C41.9376 10.507 41.9766 10.4062 41.995 10.3007C42.0134 10.1952 42.0108 10.0871 41.9874 9.98264C41.964 9.87814 41.9203 9.77928 41.8587 9.69169C41.7971 9.6041 41.7188 9.5295 41.6284 9.47215C41.538 9.4148 41.4372 9.37582 41.3317 9.35744C41.2262 9.33906 41.1181 9.34164 41.0136 9.36502C40.9091 9.38841 40.8102 9.43215 40.7227 9.49375C40.6351 9.55535 40.5605 9.63359 40.5031 9.72402C40.3364 9.99379 40.092 10.2068 39.8019 10.3351C39.5119 10.4635 39.1899 10.5011 38.8781 10.4431C38.448 10.341 38.0629 10.1014 37.7812 9.76058C35.4859 6.88841 32.9063 5.06841 29.9569 4.2031C29.9569 4.12185 29.9569 4.03654 29.9569 3.95529C29.9505 2.97465 29.5824 2.03088 28.9232 1.30487C28.2639 0.578863 27.3599 0.12171 26.3844 0.0210413C25.409 -0.0796272 24.4307 0.183273 23.637 0.759346C22.8434 1.33542 22.2903 2.18413 22.0838 3.1428C19.0938 3.10623 16.5954 3.83342 13.8126 5.51122C13.4351 5.73676 12.9946 5.8337 12.5573 5.78747C12.2468 5.73492 11.9592 5.59084 11.7312 5.37369C11.5032 5.15655 11.3452 4.87624 11.2776 4.56873C11.2604 4.45998 11.2212 4.35587 11.1626 4.26272C11.1039 4.16956 11.0269 4.0893 10.9362 4.02682C10.8456 3.96433 10.7432 3.92092 10.6352 3.89922C10.5273 3.87752 10.4161 3.87798 10.3083 3.90058C10.2006 3.92318 10.0985 3.96744 10.0084 4.03068C9.91829 4.09392 9.84195 4.17481 9.78405 4.26845C9.72614 4.36209 9.68787 4.46653 9.67156 4.57541C9.65525 4.68429 9.66124 4.79535 9.68917 4.90185C9.81908 5.53003 10.135 6.10461 10.5957 6.5509C11.0565 6.99719 11.6409 7.29456 12.2729 7.40434C12.439 7.43532 12.6077 7.45028 12.7767 7.44903C13.4393 7.43839 14.0876 7.25494 14.6576 6.91684C17.1804 5.38529 19.366 4.74748 22.0838 4.77185C22.2467 5.53088 22.6268 6.22614 23.1779 6.7729C23.729 7.31966 24.4273 7.69432 25.1875 7.85121V32.0677H22.7501C21.5672 32.0751 20.4349 32.5484 19.5984 33.3848C18.762 34.2212 18.2888 35.3535 18.2813 36.5364C18.2813 36.7519 18.3669 36.9586 18.5193 37.1109C18.6717 37.2633 18.8783 37.3489 19.0938 37.3489H32.9063C33.1218 37.3489 33.3284 37.2633 33.4808 37.1109C33.6332 36.9586 33.7188 36.7519 33.7188 36.5364C33.7113 35.3535 33.2381 34.2212 32.4017 33.3848C31.5652 32.5484 30.4329 32.0751 29.25 32.0677ZM23.6438 3.95529C23.643 3.4891 23.7805 3.03315 24.0389 2.64513C24.2973 2.25711 24.6651 1.95448 25.0955 1.77551C25.526 1.59655 25.9999 1.54931 26.4572 1.63977C26.9146 1.73023 27.3348 1.95431 27.6647 2.28368C27.9946 2.61304 28.2195 3.03288 28.3107 3.49005C28.402 3.94723 28.3555 4.4212 28.1773 4.85198C27.9991 5.28277 27.6971 5.651 27.3095 5.91009C26.922 6.16918 26.4662 6.30747 26 6.30747C25.3758 6.30747 24.7771 6.05978 24.3354 5.61878C23.8936 5.17778 23.6449 4.5795 23.6438 3.95529ZM19.9876 35.7239C20.1735 35.1364 20.5412 34.623 21.0377 34.258C21.5342 33.8929 22.1338 33.695 22.7501 33.6927H29.25C29.8648 33.6989 30.4621 33.8984 30.9571 34.263C31.4522 34.6276 31.82 35.1387 32.0085 35.7239H19.9876Z"
        fill="#F2994A" />
    <path
        d="M19.4147 22.3624L13.1381 9.7687C13.0718 9.63517 12.97 9.52247 12.8439 9.44293C12.7178 9.36339 12.5722 9.32009 12.4231 9.31777C12.2735 9.31309 12.1257 9.35111 11.9969 9.42737C11.8682 9.50363 11.7638 9.61497 11.6959 9.74839L4.97253 22.3421C4.90545 22.4574 4.87012 22.5885 4.87012 22.7219C4.87012 22.8554 4.90545 22.9864 4.97253 23.1018C6.19127 25.6449 9.24626 27.1927 12.1875 27.1927C15.2587 27.1927 18.0822 25.5961 19.3903 23.1302C19.452 23.0124 19.4863 22.8821 19.4905 22.7491C19.4947 22.6161 19.4688 22.4839 19.4147 22.3624ZM12.3866 11.9015L17.3753 21.9115H7.0444L12.3866 11.9015ZM12.1875 25.5677C11.2709 25.5794 10.3614 25.4055 9.51385 25.0564C8.66627 24.7073 7.89811 24.1903 7.25565 23.5365H17.1194C16.4769 24.1903 15.7087 24.7073 14.8611 25.0564C14.0136 25.4055 13.1041 25.5794 12.1875 25.5677Z"
        fill="#F2994A" />
    <path
        d="M46.6331 26.8311L40.3565 14.2374C40.2902 14.1039 40.1884 13.9912 40.0623 13.9117C39.9362 13.8321 39.7906 13.7888 39.6415 13.7865C39.493 13.7873 39.3474 13.8276 39.2196 13.9033C39.0918 13.979 38.9864 14.0873 38.9143 14.2171L32.1909 26.8108C32.129 26.9279 32.0967 27.0583 32.0967 27.1907C32.0967 27.3231 32.129 27.4535 32.1909 27.5705C32.9374 28.8178 33.9945 29.8504 35.259 30.5673C36.5235 31.2843 37.9523 31.6613 39.4059 31.6614C42.4771 31.6614 45.3006 30.0649 46.6087 27.5989C46.681 27.4848 46.7214 27.3534 46.7257 27.2184C46.73 27.0833 46.698 26.9496 46.6331 26.8311ZM39.605 16.3702L44.5937 26.3802H34.2628L39.605 16.3702ZM39.4059 30.0364C38.4893 30.0482 37.5798 29.8742 36.7323 29.5252C35.8847 29.1761 35.1165 28.659 34.4741 28.0052H44.3378C43.6953 28.659 42.9271 29.1761 42.0796 29.5252C41.232 29.8742 40.3225 30.0482 39.4059 30.0364Z"
        fill="#F2994A" />
    <path
        d="M50.3748 45.4739C50.3748 41.8582 51.7561 40.3673 51.7601 40.3592C51.8742 40.2458 51.9521 40.1012 51.9839 39.9435C52.0158 39.7859 52.0001 39.6223 51.9389 39.4736C51.877 39.3253 51.7726 39.1987 51.6389 39.1098C51.5051 39.0208 51.3479 38.9735 51.1873 38.9739H6.49998C4.77608 38.9739 3.12278 39.6587 1.9038 40.8777C0.684817 42.0967 0 43.75 0 45.4739C0 47.1978 0.684817 48.851 1.9038 50.07C3.12278 51.289 4.77608 51.9738 6.49998 51.9738H51.1873C51.3461 51.9729 51.5011 51.9255 51.6333 51.8374C51.7654 51.7493 51.8688 51.6244 51.9307 51.4782C51.994 51.331 52.0123 51.1684 51.9834 51.0108C51.9545 50.8533 51.8796 50.7077 51.7682 50.5926C51.7682 50.5926 50.3748 49.0895 50.3748 45.4739ZM49.7167 50.3488H6.49998C5.20705 50.3488 3.96708 49.8352 3.05284 48.921C2.13861 48.0068 1.62499 46.7668 1.62499 45.4739C1.62499 44.1809 2.13861 42.941 3.05284 42.0267C3.96708 41.1125 5.20705 40.5989 6.49998 40.5989H49.7167C49.0376 42.1323 48.7074 43.7973 48.7498 45.4739C48.7074 47.1504 49.0376 48.8154 49.7167 50.3488Z"
        fill="#F2994A" />
    <path
        d="M18.6875 42.2239H7.3125C7.09701 42.2239 6.89035 42.3095 6.73798 42.4619C6.5856 42.6142 6.5 42.8209 6.5 43.0364C6.5 43.2519 6.5856 43.4585 6.73798 43.6109C6.89035 43.7633 7.09701 43.8489 7.3125 43.8489H8.12499V47.9114C8.12507 48.0496 8.16044 48.1856 8.22775 48.3064C8.29507 48.4272 8.3921 48.5288 8.50967 48.6017C8.62723 48.6745 8.76143 48.7161 8.89957 48.7225C9.03771 48.729 9.17521 48.7001 9.29905 48.6385L12.1875 47.1964L15.0759 48.6385C15.1997 48.7001 15.3372 48.729 15.4754 48.7225C15.6135 48.7161 15.7477 48.6745 15.8653 48.6017C15.9829 48.5288 16.0799 48.4272 16.1472 48.3064C16.2145 48.1856 16.2499 48.0496 16.25 47.9114V43.8489H18.6875C18.9029 43.8489 19.1096 43.7633 19.262 43.6109C19.4144 43.4585 19.5 43.2519 19.5 43.0364C19.5 42.8209 19.4144 42.6142 19.262 42.4619C19.1096 42.3095 18.9029 42.2239 18.6875 42.2239ZM14.625 46.5951L12.549 45.5592C12.4367 45.5033 12.3129 45.4743 12.1875 45.4743C12.062 45.4743 11.9383 45.5033 11.8259 45.5592L9.74999 46.5951V43.8489H14.625V46.5951Z"
        fill="#F2994A" />
</svg>
