<svg fill="none" height="55" viewBox="0 0 55 55" width="55" xmlns="http://www.w3.org/2000/svg">
    <path
        d="M4.81707 48.7908H25.3659C26.9341 50.6905 28.8975 52.2256 31.1195 53.2892C33.3414 54.3528 35.7685 54.9193 38.2317 54.9493C40.4257 54.9574 42.5999 54.5331 44.63 53.7009C46.6601 52.8687 48.5064 51.6448 50.0635 50.099C51.6205 48.5533 52.8579 46.7159 53.7049 44.692C54.5519 42.668 54.992 40.497 55 38.303C54.9538 35.5613 54.2549 32.8701 52.9612 30.4524C51.6675 28.0347 49.8163 25.9601 47.561 24.4006V8.85177C47.561 6.16884 45.1829 4.2786 42.5 4.2786H38.4146V0.985918C38.4355 0.853045 38.4246 0.717129 38.383 0.589246C38.3413 0.461364 38.27 0.345134 38.1749 0.250031C38.0798 0.154927 37.9636 0.0836411 37.8357 0.0419821C37.7078 0.000323024 37.5719 -0.01053 37.439 0.0103079H31.6463C30.9756 0.0103079 30.4878 0.315186 30.4878 0.985918V4.2786H17.0732V0.985918C17.0732 0.315186 16.2805 0.0103079 15.6098 0.0103079H9.81707C9.14634 0.0103079 8.53659 0.315186 8.53659 0.985918V4.2786H4.81707C2.13415 4.2786 0 6.16884 0 8.85177V44.2176C0 46.9006 2.13415 48.7908 4.81707 48.7908ZM52.5 38.4249C52.488 41.2443 51.6409 43.9969 50.0658 46.3353C48.4907 48.6737 46.2581 50.493 43.6498 51.5636C41.0416 52.6342 38.1747 52.908 35.4109 52.3506C32.6472 51.7932 30.1105 50.4295 28.1211 48.4316C26.1318 46.4338 24.7789 43.8913 24.2333 41.1252C23.6877 38.3591 23.9738 35.4934 25.0555 32.8897C26.1372 30.2861 27.966 28.0613 30.311 26.4961C32.6561 24.931 35.4123 24.0957 38.2317 24.0957C40.1106 24.0957 41.971 24.4667 43.7061 25.1876C45.4412 25.9084 47.0168 26.9649 48.3425 28.2963C49.6683 29.6277 50.718 31.2078 51.4314 32.946C52.1449 34.6841 52.508 36.5461 52.5 38.4249ZM38.3537 21.6567C36.1625 21.6406 33.9897 22.0573 31.96 22.8828C29.9303 23.7084 28.0835 24.9265 26.5256 26.4674C24.9677 28.0083 23.7294 29.8416 22.8816 31.8622C22.0338 33.8828 21.5933 36.0508 21.5854 38.242C21.5619 41.0871 22.2987 43.8868 23.7195 46.3518H4.81707C3.47561 46.3518 2.43902 45.5591 2.43902 44.2176V18.9127H45.122V23.1201C42.9796 22.2058 40.6824 21.7091 38.3537 21.6567ZM32.9268 2.44933H35.9756V7.93714H32.9268V2.44933ZM10.9756 2.44933H14.6341V7.93714H10.9756V2.44933ZM4.81707 6.71763H8.53659V9.0347C8.55016 9.37584 8.68771 9.70032 8.92345 9.94729C9.15919 10.1943 9.47693 10.3467 9.81707 10.3762H15.6098C15.97 10.3526 16.3113 10.2068 16.5774 9.96284C16.8435 9.71892 17.0184 9.3915 17.0732 9.0347V6.71763H30.4878V9.0347C30.4706 9.36456 30.5816 9.6883 30.7975 9.93828C31.0134 10.1883 31.3175 10.3452 31.6463 10.3762H37.439C38.1098 10.3762 38.4146 9.70543 38.4146 9.0347V6.71763H42.5C43.8415 6.71763 45.122 7.51031 45.122 8.85177V16.4737H2.43902V8.85177C2.43902 7.51031 3.47561 6.71763 4.81707 6.71763Z"
        fill="#EB5757" />
    <path
        d="M35.9756 31.1078V39.6444C36.0338 39.9889 36.2133 40.3012 36.4817 40.5249C36.7501 40.7485 37.0897 40.8688 37.439 40.8639H43.9634C44.2868 40.8639 44.597 40.7354 44.8257 40.5067C45.0544 40.278 45.1829 39.9678 45.1829 39.6444C45.1829 39.321 45.0544 39.0108 44.8257 38.7821C44.597 38.5534 44.2868 38.4249 43.9634 38.4249H38.4146V31.1078C38.4146 30.7844 38.2861 30.4742 38.0574 30.2455C37.8287 30.0168 37.5185 29.8883 37.1951 29.8883C36.8717 29.8883 36.5615 30.0168 36.3328 30.2455C36.1041 30.4742 35.9756 30.7844 35.9756 31.1078Z"
        fill="#EB5757" />
</svg>
