<svg fill="none" height="52" viewBox="0 0 52 52" width="52" xmlns="http://www.w3.org/2000/svg">
    <path
        d="M25.2021 32.8457H30.513C31.6788 32.8457 32.6503 31.9029 32.6503 30.7714V29.5771C32.6503 29.2 32.3912 28.9486 32.0026 28.9486H31.0311L28.5052 20.6514C28.6995 20.5257 28.9585 20.4 29.1528 20.2743C31.614 18.8286 33.8161 18.7029 34.8523 18.7029V33.7257H32.7798C31.8083 33.7257 31.0311 34.48 31.0311 35.4229V37.3714C31.0311 37.7486 31.2902 38 31.6788 38H39.3212C39.7098 38 39.9689 37.7486 39.9689 37.3714V35.4857C39.9689 34.5429 39.1917 33.7886 38.2202 33.7886H36.1477V18.7657C37.1192 18.7657 39.386 18.9543 41.8472 20.3371C41.9767 20.4 42.171 20.5257 42.3005 20.5886L39.7098 29.0114H39.0622C38.6736 29.0114 38.4145 29.2629 38.4145 29.64V30.8343C38.4145 31.9657 39.386 32.9086 40.5518 32.9086H45.8627C47.0285 32.9086 48 31.9657 48 30.8343V29.64C48 29.2629 47.7409 29.0114 47.3523 29.0114H46.3808L43.9845 21.3429C44.7617 21.5943 45.4093 21.6571 45.9275 21.6571C46.7047 21.6571 47.158 21.4686 47.158 21.4686C47.4819 21.3429 47.6114 20.9657 47.4819 20.6514C47.3523 20.3371 46.9637 20.1486 46.6399 20.2743C46.6399 20.2743 45.0855 20.84 42.3653 19.2686C39.6451 17.6971 37.1839 17.5086 36.0181 17.5086V16.6286C36.0181 16.2514 35.7591 16 35.3705 16C34.9819 16 34.7228 16.2514 34.7228 16.6286V17.4457C33.557 17.4457 31.0959 17.6343 28.3756 19.2057C25.7202 20.7771 24.1658 20.2114 24.1658 20.2114C23.842 20.0857 23.4534 20.2114 23.3238 20.5257C23.1943 20.84 23.3238 21.2171 23.6477 21.3429C23.7124 21.3429 24.101 21.5314 24.8782 21.5314C25.3316 21.5314 25.9145 21.4686 26.6269 21.28L24.2953 28.8857H23.6477C23.2591 28.8857 23 29.1371 23 29.5143V30.7086C23.0648 31.9657 24.0363 32.8457 25.2021 32.8457ZM38.6088 35.4857V36.8057H32.2617V35.4857C32.2617 35.2343 32.456 35.0457 32.715 35.0457H38.1554C38.4145 35.0457 38.6088 35.2343 38.6088 35.4857ZM46.6399 30.8343C46.6399 31.2743 46.2513 31.6514 45.7979 31.6514H40.487C40.0337 31.6514 39.6451 31.2743 39.6451 30.8343V30.2686H46.5751V30.8343H46.6399ZM41.0052 28.9486L43.013 22.5371L45.0207 28.9486H41.0052ZM31.3549 30.8343C31.3549 31.2743 30.9663 31.6514 30.513 31.6514H25.2021C24.7487 31.6514 24.3601 31.2743 24.3601 30.8343V30.2686H31.2902V30.8343H31.3549ZM27.6632 22.5371L29.671 28.9486H25.7202L27.6632 22.5371Z"
        fill="#219653" />
    <path
        d="M51.35 10.985H41.86V2.275C41.86 1.04 40.885 0 39.65 0H2.275C1.04 0 0 1.04 0 2.275V49.79C0 50.96 1.04 52 2.275 52H39.65C40.885 52 41.925 50.96 41.925 49.725V43.095H51.35C51.74 43.095 52 42.835 52 42.445V11.635C52 11.245 51.74 10.985 51.35 10.985ZM40.56 2.275V10.985H37.765V4.225C37.765 3.835 37.505 3.575 37.115 3.575H31.33V1.3H39.65C40.17 1.3 40.56 1.755 40.56 2.275ZM20.93 10.985C20.54 10.985 20.28 11.245 20.28 11.635V15.08H10.27C9.88 15.08 9.62 15.34 9.62 15.73C9.62 16.12 9.88 16.38 10.27 16.38H20.345V20.54H10.27C9.88 20.54 9.62 20.8 9.62 21.19C9.62 21.58 9.88 21.84 10.27 21.84H20.345V26H10.27C9.88 26 9.62 26.26 9.62 26.65C9.62 27.04 9.88 27.3 10.27 27.3H20.345V31.46H10.27C9.88 31.46 9.62 31.72 9.62 32.11C9.62 32.5 9.88 32.76 10.27 32.76H20.345V36.92H10.27C9.88 36.92 9.62 37.18 9.62 37.57C9.62 37.96 9.88 38.22 10.27 38.22H20.345V42.575C20.345 42.965 20.605 43.225 20.995 43.225H36.53V46.8H5.395V4.875H10.53V5.72C10.53 7.345 11.895 8.645 13.52 8.645H28.405C30.03 8.645 31.395 7.345 31.395 5.72V4.875H36.53V10.92H20.93V10.985ZM30.03 4.875V5.72C30.03 6.63 29.25 7.345 28.34 7.345H13.52C12.61 7.345 11.83 6.63 11.83 5.72V4.875H30.03ZM11.83 3.575V1.3H30.03V3.575H11.83ZM40.56 49.725C40.56 50.245 40.105 50.7 39.585 50.7H2.275C1.755 50.7 1.3 50.245 1.3 49.725V2.275C1.3 1.755 1.755 1.3 2.275 1.3H10.53V3.575H4.745C4.355 3.575 4.095 3.835 4.095 4.225V47.32C4.095 47.71 4.355 47.97 4.745 47.97H37.18C37.57 47.97 37.83 47.71 37.83 47.32V43.095H40.625V49.725H40.56ZM50.7 41.795H21.58V12.285H50.7V41.795Z"
        fill="#219653" />
</svg>
