<svg fill="none" height="53" viewBox="0 0 46 53" width="46" xmlns="http://www.w3.org/2000/svg">
    <path d="M25.226 15.3872H22.2583V17.0969H25.226V15.3872Z" fill="#56CCF2" />
    <path d="M38.5804 15.3872H26.7095V17.0969H38.5804V15.3872Z" fill="#56CCF2" />
    <path d="M35.6131 18.8064H22.2583V20.5161H35.6131V18.8064Z" fill="#56CCF2" />
    <path d="M32.6454 22.2258H22.2583V23.9355H32.6454V22.2258Z" fill="#56CCF2" />
    <path d="M38.5803 5.12915H14.8384V6.83883H37.0964V10.2582H14.8384V11.9679H38.5803V5.12915Z"
        fill="#56CCF2" />
    <path
        d="M46 21.5419C46 19.0629 44.2194 17.0968 42.1419 17.0968C41.9194 17.0968 41.771 17.0968 41.5484 17.1823V1.70968C41.5484 0.769355 40.8806 0 40.0645 0H12.3161L4.45161 9.06129V21.029L2.22581 23.5935C0.816129 25.2177 0 27.4403 0 29.7484C0 30.5177 0.0741936 31.2871 0.222581 31.971L2.96774 43.5968L1.33548 53H13.5032L12.9097 49.5806H31.6806L30.9387 53H41.771L40.0645 45.3065L41.4742 34.621C41.4742 34.3645 41.5484 34.1935 41.5484 33.9371C41.5484 32.4839 41.1032 31.1161 40.3613 30.0048L44.8871 24.7903C45.629 23.9355 46 22.7387 46 21.5419ZM40.0645 17.7806C39.8419 17.9516 39.5452 18.1226 39.3226 18.379L33.0903 25.6452H28.9355C27.6742 25.6452 26.7097 26.7565 26.7097 28.2097C26.7097 28.979 27.0065 29.7484 27.6 30.2613L28.4161 31.0306L24.7065 35.3048L24.6323 35.3903L23.5194 38.3823L21.7387 31.2871C21.5161 30.4323 20.8484 29.9194 20.1065 29.9194C19.2903 29.9194 18.6226 30.6032 18.4742 31.5436L17.2129 40.8613C17.2129 41.0323 16.9161 41.0323 16.9161 40.8613L15.8032 34.8774C15.5806 34.0226 14.8387 33.3387 14.0226 33.3387C13.3548 33.3387 12.7613 33.7661 12.4645 34.45L10.0161 28.8081C10.2387 28.979 10.3871 29.15 10.6097 29.321L14.171 31.8855L17.7323 29.321C19.6613 27.8677 20.8484 25.4742 20.8484 22.8242V15.1306L18.2516 16.1565C17.1387 16.5839 15.8774 16.2419 15.0613 15.3016L14.0968 14.1903L13.2065 15.2161C12.3903 16.1565 11.129 16.4984 10.0161 16.071L7.41935 15.0452V22.7387C7.41935 23.7645 7.56774 24.7903 7.93871 25.7306C7.86452 25.7306 7.79032 25.7306 7.71613 25.7306C7.04839 25.7306 6.45484 25.9871 5.93548 26.329V10.0871L6.67742 9.83065C8.30968 9.23226 10.1645 9.48871 11.5742 10.6L13.3548 11.9677V1.70968H40.0645V17.7806ZM35.5387 32.9968C35.3161 31.7145 34.3516 30.7742 33.2387 30.7742C32.1258 30.7742 31.1613 31.7145 30.9387 32.9968L29.8258 39.6645C29.8258 39.75 29.8258 39.75 29.8258 39.8355H29.6774L26.2645 35.9032L35.6129 25.1323L39.0258 29.0645L35.5387 32.9968ZM23.8161 41.9726L24.1871 41.0323L25.3 42.3145L24.4839 42.7419C24.1871 42.9129 23.8161 42.571 23.8161 42.229C23.7419 42.1436 23.7419 42.0581 23.8161 41.9726ZM26.7097 41.5452L24.7806 39.3226L25.5226 37.4419L28.4161 40.7758L26.7097 41.5452ZM28.4903 28.8935C28.2677 28.7226 28.1935 28.4661 28.1935 28.2097C28.1935 27.6968 28.4903 27.3548 28.9355 27.3548H31.6065L29.529 29.7484L28.4903 28.8935ZM36.6516 23.9355L37.8387 22.5677L41.2516 26.5L40.0645 27.8677L36.6516 23.9355ZM8.90323 22.7387V17.4387L9.57097 17.6952C11.129 18.2935 12.9097 17.8661 14.0968 16.5839C15.2839 17.8661 17.0645 18.2935 18.6226 17.6952L19.2903 17.4387V22.7387C19.2903 24.7903 18.4 26.671 16.8419 27.7823L14.0968 29.7484L11.3516 27.7823C9.79355 26.671 8.90323 24.7903 8.90323 22.7387ZM7.71613 7.77903L11.871 2.90645V8.71935C10.6097 7.86452 9.12581 7.60807 7.71613 7.77903ZM3.11613 51.2903L4.30323 44.4516H10.5355L11.7226 51.2903H3.11613ZM11.2774 41.2887L10.6839 42.7419H4.30323L1.70645 31.5436C1.55806 30.9452 1.48387 30.3468 1.48387 29.7484C1.48387 27.8677 2.07742 26.1581 3.26452 24.7903L4.45161 23.4226V29.9194H4.52581C4.52581 30.1758 4.6 30.4323 4.67419 30.6887L5.7871 34.5355C5.86129 34.9629 5.93548 35.3903 5.93548 35.9032V37.6129H7.41935V35.9032C7.41935 35.2194 7.34516 34.621 7.12258 34.0226L6.00968 30.1758C5.93548 29.9194 5.93548 29.6629 5.93548 29.4065C5.93548 28.2952 6.75161 27.3548 7.71613 27.3548L11.2774 35.6468C11.6484 36.5016 11.871 37.5274 11.871 38.4677C11.871 39.4081 11.6484 40.4339 11.2774 41.2887ZM12.6129 47.871L11.871 43.6823L12.6129 42.0581C13.1323 40.9468 13.3548 39.6645 13.3548 38.4677C13.3548 37.8694 13.2806 37.1855 13.1323 36.5871L13.7258 35.3048C13.8742 35.0484 14.2452 35.1339 14.3194 35.3903L15.4323 41.3742C15.5806 42.229 16.2484 42.8274 17.0645 42.8274C17.8806 42.8274 18.5484 42.1436 18.6968 41.2032L19.9581 31.8855C19.9581 31.7145 20.2548 31.629 20.329 31.8855L22.629 40.9468L22.4806 41.3742C22.4065 41.6306 22.3323 41.9726 22.3323 42.229C22.3323 43.5113 23.2226 44.5371 24.3355 44.5371C24.6323 44.5371 24.8548 44.4516 25.0774 44.3661L29.9 41.9726C30.1226 43.0839 30.7161 44.1097 31.5323 44.7936L32.6452 45.7339L32.0516 47.871H12.6129ZM32.8677 51.2903L33.9806 46.1613H38.729L39.8419 51.2903H32.8677ZM40.0645 33.9371C40.0645 34.1081 40.0645 34.1935 40.0645 34.3645L38.6548 44.4516H33.6097L32.3484 43.3403C31.6065 42.6565 31.1613 41.6306 31.1613 40.6048C31.1613 40.3484 31.1613 40.1774 31.2355 39.921L32.3484 33.3387C32.4226 32.8258 32.7935 32.4839 33.2387 32.4839C33.7581 32.4839 34.129 32.9113 34.129 33.5097V39.3226H35.6129V35.3903L39.2484 31.2016C39.7677 31.971 40.0645 32.9113 40.0645 33.9371ZM43.7742 23.5081L42.2903 25.3032L38.8774 21.371L40.3613 19.6613C40.8065 19.1484 41.4 18.8065 42.0677 18.8065C43.4032 18.8065 44.4419 20.0887 44.4419 21.5419C44.5161 22.3113 44.2935 22.9952 43.7742 23.5081Z"
        fill="#56CCF2" />
    <path d="M25.226 25.645H22.2583V27.3547H25.226V25.645Z" fill="#56CCF2" />
</svg>
